<svg width="512" height="512" xmlns="http://www.w3.org/2000/svg">

 <g>
  <title>background</title>
  <rect fill="none" id="canvas_background" height="402" width="582" y="-1" x="-1"/>
 </g>
 <g>
  <title>Layer 1</title>
  <path fill="#ffffff" id="svg_1" d="m256,512c-141.375,0 -256,-114.609 -256,-256c0,-141.375 114.625,-256 256,-256s256,114.625 256,256c0,141.391 -114.625,256 -256,256zm0,-448c-106.031,0 -192,85.969 -192,192s85.969,192 192,192c106.03,0 192,-85.969 192,-192s-85.969,-192 -192,-192z"/>
  <path fill="#ffffff" id="svg_2" d="m256,128c-53.031,0 -96,42.984 -96,96l64,0c0,-17.672 14.312,-32 32,-32c17.688,0 32,14.328 32,32s-14.312,32 -32,32c-1.226,0 -5.108,0 -16,0c-8.845,0 -16,7.172 -16,16l0,48l64,0l0,-5.875c37.188,-13.219 64,-48.391 64,-90.125c0,-53.016 -42.969,-96 -96,-96z"/>
  <polygon fill="#ffffff" id="svg_3" points="256,352 224,352 224,384 256,384 288,384 288,352 "/>
 </g>
</svg>