<?xml version="1.0" ?><svg enable-background="new 0 0 40 40" id="Слой_1" version="1.1" viewBox="0 0 40 40" xml:space="preserve" xmlns="http://www.w3.org/2000/svg" xmlns:xlink="http://www.w3.org/1999/xlink"><g><path d="M30.8,38c-0.3,0-0.6-0.1-0.9-0.2L20,32.6l-9.8,5.2c-0.7,0.3-1.4,0.3-2.1-0.1c-0.6-0.4-0.9-1.1-0.8-1.9   l0.4-2.9c0.1-0.5,0.6-0.9,1.1-0.9c0.5,0.1,0.9,0.6,0.9,1.1l-0.4,2.9l9.8-5.2c0.6-0.3,1.3-0.3,1.8,0l9.8,5.2l-1.6-11.4   c-0.1-0.6,0.1-1.2,0.6-1.7l8.3-8.1l-3.9-0.5c-0.5-0.1-0.9-0.6-0.9-1.1c0.1-0.5,0.6-0.9,1.1-0.9l3.9,0.6c0.8,0.1,1.4,0.6,1.6,1.3   c0.2,0.7,0,1.5-0.5,2l-8.3,8.1l1.6,11.4c0.1,0.7-0.2,1.5-0.8,1.9C31.6,37.9,31.2,38,30.8,38z" fill="#010202"/></g><g><path d="M9.5,28.5c0,0-0.1,0-0.1,0c-0.5-0.1-0.9-0.6-0.9-1.1l0.4-3l-8.3-8c-0.5-0.5-0.7-1.3-0.5-2   C0.4,13.6,1,13.1,1.7,13l11.4-1.6l5.2-9.2c0.4-0.6,1-1,1.7-1s1.4,0.4,1.7,1l5.2,9.3l2.3,0.3c0.5,0.1,0.9,0.6,0.9,1.1   c-0.1,0.5-0.6,0.9-1.1,0.9l-2.3-0.3c-0.6-0.1-1.1-0.5-1.4-1L20,3.1l-5.2,9.3c-0.3,0.5-0.8,0.9-1.4,1L2,14.9l8.3,8   c0.4,0.4,0.7,1.1,0.6,1.7l-0.4,3C10.4,28.2,10,28.5,9.5,28.5z" fill="#010202"/></g></svg>